<?xml version="1.0" encoding="UTF-8"?>
<svg id="Layer_1" data-name="Layer 1" xmlns="http://www.w3.org/2000/svg" viewBox="0 0 1534.09 663.74">
  <defs>
    <style>
      .cls-1 {
        fill: #000;
        stroke-width: 0px;
      }
    </style>
  </defs>
  <polygon class="cls-1" points="178.03 663.74 752.56 137.53 655.99 69.53 0 663.74 178.03 663.74"/>
  <path class="cls-1" d="M731.46,663.74c127.98-115.59,255.97-231.17,383.95-346.76-35.74-21.37-71.49-42.75-107.23-64.12-152.23,136.96-304.45,273.92-456.68,410.88h179.96Z"/>
  <polygon class="cls-1" points="1534.09 501.46 1447.93 569.9 644.07 81.12 731.46 0 1534.09 501.46"/>
  <path class="cls-1" d="M911.68,489.31c-28.47,23.9-56.93,47.8-85.4,71.7-139.48-87.92-278.96-175.84-418.45-263.77l87.27-67.61,416.57,259.68Z"/>
  <path class="cls-1" d="M1335.21,663.74c56.12-46.36,112.24-92.71,168.35-139.07-56.12-7.9-112.24-15.8-168.35-23.7-69.66,54.26-139.33,108.52-208.99,162.77h208.99Z"/>
</svg>